<?xml version="1.0" encoding="UTF-8" standalone="no"?>
<!DOCTYPE svg PUBLIC "-//W3C//DTD SVG 1.1//EN" "http://www.w3.org/Graphics/SVG/1.1/DTD/svg11.dtd">
<svg version="1.1" xmlns="http://www.w3.org/2000/svg" xmlns:xlink="http://www.w3.org/1999/xlink" preserveAspectRatio="xMidYMid meet" viewBox="192 191.99999999999974 256 256.0000000000002" width="256" height="256"><defs><path d="M448 320C448 390.65 390.65 448 320 448C249.35 448 192 390.65 192 320C192 249.35 249.35 192 320 192C390.65 192 448 249.35 448 320Z" id="a16m6Uv375"></path><path d="M294.21 262.91L268.43 205.19L287.69 200.03L306.95 194.87L313.47 257.75L320 320.63L294.21 262.91Z" id="dJ0iU8iFx"></path><path d="M192 320C192 249.35 249.35 192 320 192C390.65 192 448 249.35 448 320C448 390.65 390.65 448 320 448C249.35 448 192 390.65 192 320Z" id="dcWNZSkud"></path><clipPath id="clipa1ZTGNTaEb"><use xlink:href="#dcWNZSkud" opacity="1"></use></clipPath><path d="M332 320C332 326.62 326.62 332 320 332C313.38 332 308 326.62 308 320C308 313.38 313.38 308 320 308C326.62 308 332 313.38 332 320Z" id="b1Miw25UN"></path></defs><g><g><use xlink:href="#a16m6Uv375" opacity="1" fill="#7d7d7d" fill-opacity="0"></use></g><g><use xlink:href="#dJ0iU8iFx" opacity="1" fill="#33a8ff" fill-opacity="1"></use><g><use xlink:href="#dJ0iU8iFx" opacity="1" fill-opacity="0" stroke="#08543e" stroke-width="0" stroke-opacity="1"></use></g></g><g><use xlink:href="#dcWNZSkud" opacity="1" fill="#7d7d7d" fill-opacity="0"></use><g clip-path="url(#clipa1ZTGNTaEb)"><use xlink:href="#dcWNZSkud" opacity="1" fill-opacity="0" stroke="#0092ff" stroke-width="10" stroke-opacity="1"></use></g></g><g><use xlink:href="#b1Miw25UN" opacity="1" fill="#ffffff" fill-opacity="1"></use></g></g></svg>