<?xml version="1.0" standalone="no"?>
<!DOCTYPE svg PUBLIC "-//W3C//DTD SVG 20010904//EN"
 "http://www.w3.org/TR/2001/REC-SVG-20010904/DTD/svg10.dtd">
<svg version="1.0" xmlns="http://www.w3.org/2000/svg"
 width="16.000000pt" height="16.000000pt" viewBox="0 0 16.000000 16.000000"
 preserveAspectRatio="xMidYMid meet">
<metadata>
Created by potrace 1.11, written by Peter Selinger 2001-2013
</metadata>
<g transform="translate(0.000000,16.000000) scale(0.025000,-0.025000)"
fill="#000000" stroke="none">
<path d="M170 625 c0 -8 -7 -15 -15 -15 -8 0 -15 -9 -15 -20 0 -13 -7 -20 -20
-20 -11 0 -20 -7 -20 -15 0 -8 -7 -15 -15 -15 -10 0 -15 -11 -15 -35 0 -28 -4
-35 -20 -35 -13 0 -20 -7 -20 -20 0 -11 -7 -20 -15 -20 -13 0 -15 -21 -15
-125 0 -104 2 -125 15 -125 10 0 15 -11 15 -35 0 -28 4 -35 20 -35 11 0 20 -7
20 -15 0 -10 11 -15 35 -15 28 0 35 -4 35 -20 0 -11 7 -20 15 -20 8 0 15 -9
15 -20 0 -19 7 -20 145 -20 138 0 145 1 145 20 0 16 7 20 35 20 28 0 35 4 35
20 0 11 7 20 15 20 8 0 15 7 15 15 0 8 9 15 20 15 13 0 20 7 20 20 0 13 7 20
20 20 11 0 20 7 20 15 0 8 -9 15 -20 15 -13 0 -20 7 -20 20 0 13 7 20 20 20
11 0 20 7 20 15 0 8 -9 15 -20 15 -16 0 -20 7 -20 35 0 28 -4 35 -20 35 -13 0
-20 7 -20 20 0 13 7 20 20 20 13 0 20 7 20 20 0 13 7 20 20 20 17 0 20 7 20
50 0 43 -3 50 -20 50 -13 0 -20 7 -20 20 0 13 -7 20 -20 20 -11 0 -20 7 -20
15 0 8 -7 15 -15 15 -8 0 -15 9 -15 20 0 13 -7 20 -20 20 -11 0 -20 7 -20 15
0 10 -11 15 -35 15 -24 0 -35 -5 -35 -15 0 -8 -7 -15 -15 -15 -8 0 -15 7 -15
15 0 12 -19 15 -110 15 -91 0 -110 -3 -110 -15z m220 -35 c0 -19 -7 -20 -90
-20 -73 0 -90 -3 -90 -15 0 -8 -9 -15 -20 -15 -13 0 -20 -7 -20 -20 0 -13 7
-20 20 -20 13 0 20 7 20 20 0 19 7 20 90 20 73 0 90 3 90 15 0 8 7 15 15 15 8
0 15 9 15 20 0 16 7 20 35 20 28 0 35 -4 35 -20 0 -11 -7 -20 -15 -20 -8 0
-15 -7 -15 -15 0 -8 -9 -15 -20 -15 -13 0 -20 -7 -20 -20 0 -13 7 -20 20 -20
13 0 20 7 20 20 0 17 7 20 50 20 43 0 50 -3 50 -20 0 -17 -7 -20 -50 -20 -38
0 -50 -4 -50 -15 0 -8 7 -15 15 -15 8 0 15 -9 15 -20 0 -11 -7 -20 -15 -20 -8
0 -15 -7 -15 -15 0 -8 -9 -15 -20 -15 -13 0 -20 -7 -20 -20 0 -13 7 -20 20
-20 13 0 20 -7 20 -20 0 -17 7 -20 50 -20 l50 0 0 -35 0 -35 -120 0 c-113 0
-120 1 -120 20 0 18 -7 20 -75 20 l-75 0 0 -35 c0 -28 4 -35 20 -35 13 0 20
-7 20 -20 0 -16 7 -20 35 -20 24 0 35 -5 35 -15 0 -13 22 -15 140 -15 133 0
140 -1 140 -20 0 -11 -7 -20 -15 -20 -8 0 -15 -7 -15 -15 0 -10 -11 -15 -35
-15 -28 0 -35 -4 -35 -20 0 -19 -7 -20 -145 -20 -138 0 -145 1 -145 20 0 11
-7 20 -15 20 -8 0 -15 7 -15 15 0 10 -11 15 -35 15 -33 0 -35 2 -35 35 0 28
-4 35 -20 35 -19 0 -20 7 -20 110 0 103 1 110 20 110 16 0 20 7 20 35 0 24 5
35 15 35 10 0 15 11 15 35 0 28 4 35 20 35 11 0 20 7 20 15 0 8 7 15 15 15 8
0 15 9 15 20 0 19 7 20 110 20 103 0 110 -1 110 -20z m210 -155 c0 -28 -4 -35
-20 -35 -16 0 -20 7 -20 35 0 28 4 35 20 35 16 0 20 -7 20 -35z"/>
<path d="M210 485 c0 -8 -9 -15 -20 -15 -16 0 -20 -7 -20 -35 0 -28 4 -35 20
-35 11 0 20 7 20 15 0 8 7 15 15 15 8 0 15 9 15 20 0 13 7 20 20 20 13 0 20
-7 20 -20 0 -13 -7 -20 -20 -20 -11 0 -20 -7 -20 -15 0 -8 -7 -15 -15 -15 -8
0 -15 -9 -15 -20 0 -11 7 -20 15 -20 8 0 15 -9 15 -20 0 -18 7 -20 55 -20 48
0 55 2 55 20 0 13 7 20 20 20 13 0 20 7 20 20 0 11 7 20 15 20 8 0 15 7 15 15
0 8 9 15 20 15 13 0 20 7 20 20 0 13 -7 20 -20 20 -11 0 -20 7 -20 15 0 12
-18 15 -105 15 -87 0 -105 -3 -105 -15z m180 -50 c0 -28 -4 -35 -20 -35 -16 0
-20 7 -20 35 0 28 4 35 20 35 16 0 20 -7 20 -35z"/>
</g>
</svg>
